<svg width="8846" height="2353" viewBox="0 0 8846 2353" fill="none" xmlns="http://www.w3.org/2000/svg">
<g clip-path="url(#clip0_3281_309)">
<path d="M1770.73 1072.54C1775.86 1566.71 1372.47 1971.39 878.29 1967.72C676.43 1966.22 490.86 1896.74 343.09 1781.54C336.96 1776.76 328.02 1781.1 328.02 1788.88V2343.44C328.02 2348.59 323.84 2352.77 318.69 2352.77H9.33C4.18 2352.77 0 2348.59 0 2343.44V1081.92C0 593.39 397.31 196.1 884.95 196.1C1020.55 196.1 1148.78 228.04 1263.31 282.42C1269.16 285.2 1270.53 292.9 1265.95 297.48L1018.41 545.01C1016.13 547.29 1012.85 548.21 1009.71 547.48C967.54 537.76 925.33 532.88 882.32 532.88C834.96 532.88 788.47 539.03 742.87 550.42C491.16 617.08 324.51 846.88 327.14 1095.95C327.14 1105.49 328 1114.17 328.02 1123.69C328.02 1123.91 328.02 1124.14 328.05 1124.36C330.7 1159.33 336.83 1194.31 345.57 1229.27C409.59 1473.97 630.61 1644.99 884.08 1644.99C912.15 1644.99 941.09 1642.37 966.52 1638.86C985.81 1635.36 1005.11 1630.97 1027.04 1625.7C1044.58 1621.32 1062.12 1616.05 1077.91 1609.92C1346.29 1509.93 1493.63 1224.89 1420.84 948.62C1418.53 937.07 1414.86 925.51 1411.04 912.77C1410.05 909.48 1410.94 905.9 1413.38 903.47L1652.34 664.51C1656.78 660.07 1664.22 661.2 1667.19 666.72C1732.2 787.85 1769.23 926.14 1770.75 1072.55L1770.73 1072.54Z" fill="#292929"/>
<path d="M1680.82 1.32992C1591.8 11.0899 1516.61 78.9499 1497.46 166.43C1491.31 194.55 1490.95 221.89 1495.34 247.68C1506.4 312.61 1490.04 379.11 1445.7 427.81L1444.71 428.9L1172.53 701.08C1121.55 757.06 1043.54 784.26 970.57 764.07C916.11 749.01 857.17 747.51 798.25 762.91C619.08 809.74 510.56 993.31 557.71 1173.7C601.69 1341.97 766.41 1447.66 935.49 1421.58C946.71 1419.93 957.6 1417.09 968.5 1414.24C979.4 1411.39 990.3 1408.55 1000.88 1404.49C1162.31 1344.19 1253.04 1171.73 1209.05 1003.46C1206.9 995.23 1204.44 987.18 1201.71 979.3C1175.96 905.05 1188.52 823.01 1241.42 764.9L1454.87 551.34L1521.32 484.89C1563.64 442.05 1622.56 417.45 1682.53 424.25C1688.84 424.97 1695.25 425.39 1701.74 425.49C1811.67 427.27 1903.98 344.91 1916.78 237.53C1917.69 230.42 1917.8 223.31 1917.92 216.19C1918.03 209.07 1918.15 201.95 1917.47 194.83C1907.38 77.2899 1803.1 -12.0901 1680.83 1.31992L1680.82 1.32992Z" fill="#FDD100"/>
</g>
<path d="M8570.44 1788.48C8481.39 1788.48 8411.78 1763.39 8361.62 1713.23C8311.45 1661.81 8286.37 1592.83 8286.37 1506.29V588.229H8579.84V1489.36C8579.84 1504.41 8584.86 1517.57 8594.89 1528.86C8606.18 1538.9 8619.35 1543.91 8634.4 1543.91H8845.1V1788.48H8570.44ZM8128.34 1062.31V823.387H8845.1V1062.31H8128.34Z" fill="#292929"/>
<path d="M7685.64 1788.48C7576.52 1788.48 7480.58 1768.41 7397.8 1728.28C7315.03 1686.89 7250.44 1630.45 7204.03 1558.96C7158.88 1486.22 7136.31 1402.19 7136.31 1306.87C7136.31 1201.52 7158.26 1111.22 7202.15 1035.97C7246.05 960.72 7304.37 903.028 7377.11 862.894C7451.11 821.506 7532.63 800.812 7621.68 800.812C7723.26 800.812 7807.92 822.133 7875.65 864.776C7944.63 907.418 7996.68 965.737 8031.79 1039.73C8066.91 1112.48 8084.47 1195.88 8084.47 1289.94C8084.47 1306.25 8083.21 1325.69 8080.71 1348.26C8079.45 1369.58 8077.57 1386.51 8075.06 1399.06H7442.96C7450.48 1431.66 7464.9 1459.26 7486.22 1481.83C7507.55 1504.41 7534.51 1521.34 7567.12 1532.63C7599.73 1542.66 7636.1 1547.68 7676.23 1547.68H7971.59V1788.48H7685.64ZM7435.43 1216.57H7802.28C7799.77 1196.51 7796.01 1177.07 7790.99 1158.25C7785.97 1139.44 7777.82 1123.14 7766.53 1109.34C7756.5 1094.29 7744.58 1081.75 7730.79 1071.72C7716.99 1060.43 7700.69 1051.65 7681.88 1045.38C7664.32 1039.11 7644.25 1035.97 7621.68 1035.97C7592.83 1035.97 7567.12 1040.99 7544.54 1051.02C7521.97 1061.05 7503.16 1074.85 7488.11 1092.41C7473.06 1108.71 7461.14 1128.15 7452.36 1150.73C7444.84 1172.05 7439.19 1194 7435.43 1216.57Z" fill="#292929"/>
<path d="M6062.11 1788.48V1233.5C6062.11 1153.24 6081.55 1080.49 6120.43 1015.28C6159.31 950.06 6214.49 898.011 6285.98 859.132C6358.72 820.252 6444.63 800.812 6543.71 800.812C6644.05 800.812 6729.33 820.252 6799.57 859.132C6871.05 898.011 6925.61 950.06 6963.24 1015.28C7000.86 1080.49 7019.67 1153.24 7019.67 1233.5V1788.48H6728.08V1241.03C6728.08 1207.17 6719.93 1176.44 6703.62 1148.85C6687.32 1120 6664.74 1097.43 6635.9 1081.12C6608.3 1063.56 6576.95 1054.78 6541.83 1054.78C6505.46 1054.78 6472.85 1063.56 6444.01 1081.12C6416.41 1097.43 6394.47 1120 6378.16 1148.85C6361.86 1176.44 6353.71 1207.17 6353.71 1241.03V1788.48H6062.11Z" fill="#292929"/>
<path d="M5424.27 1811.05C5325.19 1811.05 5236.14 1789.11 5157.13 1745.21C5078.12 1701.31 5015.41 1641.11 4969 1564.61C4923.85 1488.1 4901.28 1402.19 4901.28 1306.87C4901.28 1210.3 4923.85 1124.39 4969 1049.14C5015.41 972.635 5078.12 912.434 5157.13 868.538C5236.14 823.388 5325.19 800.812 5424.27 800.812C5523.35 800.812 5611.77 823.388 5689.53 868.538C5768.54 912.434 5830.63 972.635 5875.78 1049.14C5922.18 1124.39 5945.38 1210.3 5945.38 1306.87C5945.38 1402.19 5922.18 1488.1 5875.78 1564.61C5830.63 1641.11 5768.54 1701.31 5689.53 1745.21C5610.52 1789.11 5522.1 1811.05 5424.27 1811.05ZM5424.27 1557.08C5470.68 1557.08 5510.81 1545.79 5544.67 1523.22C5578.54 1500.64 5604.87 1470.54 5623.69 1432.92C5642.5 1395.29 5651.91 1352.65 5651.91 1304.99C5651.91 1258.59 5642.5 1216.57 5623.69 1178.95C5604.87 1141.32 5578.54 1111.22 5544.67 1088.65C5510.81 1066.07 5470.68 1054.78 5424.27 1054.78C5377.87 1054.78 5337.11 1066.07 5301.99 1088.65C5268.13 1111.22 5241.79 1141.32 5222.98 1178.95C5204.16 1216.57 5194.76 1258.59 5194.76 1304.99C5194.76 1352.65 5204.16 1395.29 5222.98 1432.92C5241.79 1470.54 5268.13 1500.64 5301.99 1523.22C5337.11 1545.79 5377.87 1557.08 5424.27 1557.08Z" fill="#292929"/>
<path d="M4545.47 1788.48C4456.42 1788.48 4386.82 1763.39 4336.65 1713.23C4286.48 1661.81 4261.4 1592.83 4261.4 1506.29V588.229H4554.88V1489.36C4554.88 1504.41 4559.89 1517.57 4569.93 1528.86C4581.22 1538.9 4594.38 1543.91 4609.43 1543.91H4820.14V1788.48H4545.47ZM4103.37 1062.31V823.387H4820.14V1062.31H4103.37Z" fill="#292929"/>
<path d="M3072.45 1788.48V1233.5C3072.45 1153.24 3091.89 1080.49 3130.76 1015.28C3169.64 950.06 3224.83 898.011 3296.32 859.132C3369.06 820.252 3454.97 800.812 3554.05 800.812C3654.38 800.812 3739.67 820.252 3809.9 859.132C3881.39 898.011 3935.95 950.06 3973.57 1015.28C4011.2 1080.49 4030.01 1153.24 4030.01 1233.5V1788.48H3738.41V1241.03C3738.41 1207.17 3730.26 1176.44 3713.96 1148.85C3697.65 1120 3675.08 1097.43 3646.23 1081.12C3618.64 1063.56 3587.29 1054.78 3552.17 1054.78C3515.8 1054.78 3483.19 1063.56 3454.34 1081.12C3426.75 1097.43 3404.8 1120 3388.5 1148.85C3372.19 1176.44 3364.04 1207.17 3364.04 1241.03V1788.48H3072.45Z" fill="#292929"/>
<path d="M2640.64 1788.48V823.386H2934.12V1788.48H2640.64ZM2787.38 714.272C2740.97 714.272 2700.84 697.341 2666.98 663.478C2633.11 629.615 2616.18 589.481 2616.18 543.077C2616.18 496.672 2633.11 456.538 2666.98 422.675C2700.84 387.558 2740.97 370 2787.38 370C2833.78 370 2873.92 387.558 2907.78 422.675C2941.64 456.538 2958.57 496.672 2958.57 543.077C2958.57 589.481 2941.64 629.615 2907.78 663.478C2873.92 697.341 2833.78 714.272 2787.38 714.272Z" fill="#292929"/>
<path d="M1946 1788.48V1107.46C1946 1019.67 1971.08 950.685 2021.25 900.518C2071.42 850.351 2141.02 825.268 2230.07 825.268H2510.38V1062.31H2301.56C2284 1062.31 2268.95 1068.58 2256.41 1081.12C2243.87 1092.41 2237.6 1107.46 2237.6 1126.27V1788.48H1946Z" fill="#292929"/>
<defs>
<clipPath id="clip0_3281_309">
<rect width="1917.99" height="2352.77" fill="white"/>
</clipPath>
</defs>
</svg>
